<svg width="94" height="36" viewBox="0 0 94 36" fill="none" xmlns="http://www.w3.org/2000/svg">
<g clip-path="url(#clip0_1649_399)">
<path d="M93.0924 23.4844C92.9515 23.4844 92.8106 23.5781 92.7167 23.8125C91.7773 26.5312 90.4622 28.1719 89.3819 28.1719C88.7713 28.1719 88.5365 27.4688 88.5365 26.4375C88.5365 23.7656 90.1334 18.0938 90.9319 15.4688C91.0258 15.1406 91.0728 14.8594 91.0728 14.625C91.0728 13.875 90.6501 13.5 89.6167 13.5C88.5365 13.5 87.3153 13.9219 86.188 15.9375C85.8123 14.1562 84.5911 13.4062 82.9002 13.4062C80.9744 13.4062 79.0957 14.6719 77.5457 16.6875C75.9958 18.7031 74.164 19.3594 72.8019 19.0312C73.7882 16.6406 74.164 14.8125 74.164 13.5C74.164 11.3906 73.1306 10.125 71.4398 10.125C68.9034 10.125 67.4474 12.5625 67.4474 15.0938C67.4474 17.0625 68.3398 19.0781 70.3125 20.0625C68.6686 23.7656 66.2732 27.1406 65.3338 27.1406C64.1596 27.1406 63.7838 21.375 63.8778 17.25C63.9247 14.9062 64.1126 14.7656 64.1126 14.0625C64.1126 13.6406 63.8308 13.3594 62.7505 13.3594C60.2612 13.3594 59.4627 15.4688 59.3687 17.9062C59.3218 18.8438 59.1809 19.7344 58.946 20.625C57.9127 24.3281 55.7521 27.1875 54.3431 27.1875C53.6855 27.1875 53.4976 26.5312 53.4976 25.6875C53.4976 23.0156 55.0006 19.6406 55.0006 16.7812C55.0006 14.6719 54.0612 13.3594 52.3234 13.3594C50.2568 13.3594 47.5795 15.7969 44.9962 20.3438C45.8417 16.875 46.1705 13.5 43.6811 13.5C43.1175 13.5 42.6008 13.6406 42.1311 13.9219C41.8024 14.0625 41.6145 14.3906 41.6145 14.7656C41.8493 18.4688 38.6085 27.9844 35.5555 27.9844C34.9919 27.9844 34.71 27.375 34.71 26.3906C34.71 23.7188 36.307 18.0469 37.1055 15.4219C37.1994 15.0938 37.2464 14.8125 37.2464 14.5312C37.2464 13.8281 36.8236 13.4531 35.7903 13.4531C34.71 13.4531 33.4889 13.875 32.3616 15.8906C31.9389 14.1094 30.7647 13.3594 29.0738 13.3594C26.3026 13.3594 23.2496 16.2656 21.8875 20.0625C20.0557 25.125 16.4391 30.0469 11.5074 30.0469C7.04534 30.0469 4.69689 26.3438 4.69689 20.4844C4.69689 12 10.9438 5.10938 15.5467 5.10938C17.7543 5.10938 18.7876 6.51563 18.7876 8.67188C18.7876 11.2969 17.3315 12.4688 17.3315 13.5C17.3315 13.7812 17.5664 14.1094 18.083 14.1094C20.1027 14.1094 22.4512 11.7656 22.4512 8.53125C22.4512 5.29688 19.9148 3 15.3119 3C7.65594 3 0 10.6406 0 20.4844C0 28.3125 3.85145 33 10.521 33C15.077 33 19.0694 29.4844 21.183 25.3594C21.4178 28.7812 22.9678 30.5625 25.3632 30.5625C27.4768 30.5625 29.1677 29.2969 30.4828 27.0938C30.9995 29.3906 32.3146 30.5156 34.0525 30.5156C36.0252 30.5156 37.7161 29.25 39.266 26.9531C39.266 28.7812 39.6418 30.5156 41.2387 30.5156C41.9902 30.5156 42.8826 30.3281 43.0235 29.6719C44.7144 22.7812 48.8477 17.1094 50.1159 17.1094C50.4916 17.1094 50.5855 17.4844 50.5855 17.9062C50.5855 19.7812 49.2704 23.625 49.2704 26.0625C49.2704 28.7344 50.3977 30.4688 52.7461 30.4688C55.3294 30.4688 57.9597 27.3281 59.6975 22.6875C60.2612 27 61.4354 30.4688 63.2672 30.4688C65.5217 30.4688 69.608 25.6875 72.0504 20.625C72.9897 20.7656 74.4458 20.7188 75.8548 19.7344C75.2442 21.2344 74.9155 22.875 74.9155 24.4688C74.9155 29.1562 77.17 30.4688 79.0957 30.4688C81.2093 30.4688 82.9002 29.2031 84.2153 27C84.638 28.9688 85.7653 30.4219 87.7849 30.4219C90.9319 30.4219 93.703 27.1875 93.703 24.5156C93.75 23.9531 93.4212 23.4844 93.0924 23.4844ZM27.3359 27.9375C26.0678 27.9375 25.5511 26.6719 25.5511 24.75C25.5511 21.4219 27.8526 15.8438 30.248 15.8438C31.2813 15.8438 31.704 17.0625 31.704 18.6094C31.704 21.9844 29.5435 27.9375 27.3359 27.9375ZM71.1579 18C70.4064 17.1094 70.1246 15.8438 70.1246 14.7656C70.1246 13.4062 70.6413 12.2812 71.2049 12.2812C71.7685 12.2812 72.0034 12.8438 72.0034 13.6875C71.9564 15 71.4867 17.0156 71.1579 18ZM81.0684 27.9375C79.8002 27.9375 79.2836 26.4375 79.2836 24.75C79.2836 21.5156 81.5851 15.8438 83.9805 15.8438C85.0138 15.8438 85.3895 17.0625 85.3895 18.6094C85.4365 21.9844 83.3229 27.9375 81.0684 27.9375Z" fill="url(#paint0_linear_1649_399)"/>
<path d="M93.0924 23.4844C92.9515 23.4844 92.8106 23.5781 92.7167 23.8125C91.7773 26.5312 90.4622 28.1719 89.3819 28.1719C88.7713 28.1719 88.5365 27.4688 88.5365 26.4375C88.5365 23.7656 90.1334 18.0938 90.9319 15.4688C91.0258 15.1406 91.0728 14.8594 91.0728 14.625C91.0728 13.875 90.6501 13.5 89.6167 13.5C88.5365 13.5 87.3153 13.9219 86.188 15.9375C85.8123 14.1562 84.5911 13.4062 82.9002 13.4062C80.9744 13.4062 79.0957 14.6719 77.5457 16.6875C75.9958 18.7031 74.164 19.3594 72.8019 19.0312C73.7882 16.6406 74.164 14.8125 74.164 13.5C74.164 11.3906 73.1306 10.125 71.4398 10.125C68.9034 10.125 67.4474 12.5625 67.4474 15.0938C67.4474 17.0625 68.3398 19.0781 70.3125 20.0625C68.6686 23.7656 66.2732 27.1406 65.3338 27.1406C64.1596 27.1406 63.7838 21.375 63.8778 17.25C63.9247 14.9062 64.1126 14.7656 64.1126 14.0625C64.1126 13.6406 63.8308 13.3594 62.7505 13.3594C60.2612 13.3594 59.4627 15.4688 59.3687 17.9062C59.3218 18.8438 59.1809 19.7344 58.946 20.625C57.9127 24.3281 55.7521 27.1875 54.3431 27.1875C53.6855 27.1875 53.4976 26.5312 53.4976 25.6875C53.4976 23.0156 55.0006 19.6406 55.0006 16.7812C55.0006 14.6719 54.0612 13.3594 52.3234 13.3594C50.2568 13.3594 47.5795 15.7969 44.9962 20.3438C45.8417 16.875 46.1705 13.5 43.6811 13.5C43.1175 13.5 42.6008 13.6406 42.1311 13.9219C41.8024 14.0625 41.6145 14.3906 41.6145 14.7656C41.8493 18.4688 38.6085 27.9844 35.5555 27.9844C34.9919 27.9844 34.71 27.375 34.71 26.3906C34.71 23.7188 36.307 18.0469 37.1055 15.4219C37.1994 15.0938 37.2464 14.8125 37.2464 14.5312C37.2464 13.8281 36.8236 13.4531 35.7903 13.4531C34.71 13.4531 33.4889 13.875 32.3616 15.8906C31.9389 14.1094 30.7647 13.3594 29.0738 13.3594C26.3026 13.3594 23.2496 16.2656 21.8875 20.0625C20.0557 25.125 16.4391 30.0469 11.5074 30.0469C7.04534 30.0469 4.69689 26.3438 4.69689 20.4844C4.69689 12 10.9438 5.10938 15.5467 5.10938C17.7543 5.10938 18.7876 6.51563 18.7876 8.67188C18.7876 11.2969 17.3315 12.4688 17.3315 13.5C17.3315 13.7812 17.5664 14.1094 18.083 14.1094C20.1027 14.1094 22.4512 11.7656 22.4512 8.53125C22.4512 5.29688 19.9148 3 15.3119 3C7.65594 3 0 10.6406 0 20.4844C0 28.3125 3.85145 33 10.521 33C15.077 33 19.0694 29.4844 21.183 25.3594C21.4178 28.7812 22.9678 30.5625 25.3632 30.5625C27.4768 30.5625 29.1677 29.2969 30.4828 27.0938C30.9995 29.3906 32.3146 30.5156 34.0525 30.5156C36.0252 30.5156 37.7161 29.25 39.266 26.9531C39.266 28.7812 39.6418 30.5156 41.2387 30.5156C41.9902 30.5156 42.8826 30.3281 43.0235 29.6719C44.7144 22.7812 48.8477 17.1094 50.1159 17.1094C50.4916 17.1094 50.5855 17.4844 50.5855 17.9062C50.5855 19.7812 49.2704 23.625 49.2704 26.0625C49.2704 28.7344 50.3977 30.4688 52.7461 30.4688C55.3294 30.4688 57.9597 27.3281 59.6975 22.6875C60.2612 27 61.4354 30.4688 63.2672 30.4688C65.5217 30.4688 69.608 25.6875 72.0504 20.625C72.9897 20.7656 74.4458 20.7188 75.8548 19.7344C75.2442 21.2344 74.9155 22.875 74.9155 24.4688C74.9155 29.1562 77.17 30.4688 79.0957 30.4688C81.2093 30.4688 82.9002 29.2031 84.2153 27C84.638 28.9688 85.7653 30.4219 87.7849 30.4219C90.9319 30.4219 93.703 27.1875 93.703 24.5156C93.75 23.9531 93.4212 23.4844 93.0924 23.4844ZM27.3359 27.9375C26.0678 27.9375 25.5511 26.6719 25.5511 24.75C25.5511 21.4219 27.8526 15.8438 30.248 15.8438C31.2813 15.8438 31.704 17.0625 31.704 18.6094C31.704 21.9844 29.5435 27.9375 27.3359 27.9375ZM71.1579 18C70.4064 17.1094 70.1246 15.8438 70.1246 14.7656C70.1246 13.4062 70.6413 12.2812 71.2049 12.2812C71.7685 12.2812 72.0034 12.8438 72.0034 13.6875C71.9564 15 71.4867 17.0156 71.1579 18ZM81.0684 27.9375C79.8002 27.9375 79.2836 26.4375 79.2836 24.75C79.2836 21.5156 81.5851 15.8438 83.9805 15.8438C85.0138 15.8438 85.3895 17.0625 85.3895 18.6094C85.4365 21.9844 83.3229 27.9375 81.0684 27.9375Z" fill="url(#paint1_radial_1649_399)"/>
<path d="M93.0924 23.4844C92.9515 23.4844 92.8106 23.5781 92.7167 23.8125C91.7773 26.5312 90.4622 28.1719 89.3819 28.1719C88.7713 28.1719 88.5365 27.4688 88.5365 26.4375C88.5365 23.7656 90.1334 18.0938 90.9319 15.4688C91.0258 15.1406 91.0728 14.8594 91.0728 14.625C91.0728 13.875 90.6501 13.5 89.6167 13.5C88.5365 13.5 87.3153 13.9219 86.188 15.9375C85.8123 14.1562 84.5911 13.4062 82.9002 13.4062C80.9744 13.4062 79.0957 14.6719 77.5457 16.6875C75.9958 18.7031 74.164 19.3594 72.8019 19.0312C73.7882 16.6406 74.164 14.8125 74.164 13.5C74.164 11.3906 73.1306 10.125 71.4398 10.125C68.9034 10.125 67.4474 12.5625 67.4474 15.0938C67.4474 17.0625 68.3398 19.0781 70.3125 20.0625C68.6686 23.7656 66.2732 27.1406 65.3338 27.1406C64.1596 27.1406 63.7838 21.375 63.8778 17.25C63.9247 14.9062 64.1126 14.7656 64.1126 14.0625C64.1126 13.6406 63.8308 13.3594 62.7505 13.3594C60.2612 13.3594 59.4627 15.4688 59.3687 17.9062C59.3218 18.8438 59.1809 19.7344 58.946 20.625C57.9127 24.3281 55.7521 27.1875 54.3431 27.1875C53.6855 27.1875 53.4976 26.5312 53.4976 25.6875C53.4976 23.0156 55.0006 19.6406 55.0006 16.7812C55.0006 14.6719 54.0612 13.3594 52.3234 13.3594C50.2568 13.3594 47.5795 15.7969 44.9962 20.3438C45.8417 16.875 46.1705 13.5 43.6811 13.5C43.1175 13.5 42.6008 13.6406 42.1311 13.9219C41.8024 14.0625 41.6145 14.3906 41.6145 14.7656C41.8493 18.4688 38.6085 27.9844 35.5555 27.9844C34.9919 27.9844 34.71 27.375 34.71 26.3906C34.71 23.7188 36.307 18.0469 37.1055 15.4219C37.1994 15.0938 37.2464 14.8125 37.2464 14.5312C37.2464 13.8281 36.8236 13.4531 35.7903 13.4531C34.71 13.4531 33.4889 13.875 32.3616 15.8906C31.9389 14.1094 30.7647 13.3594 29.0738 13.3594C26.3026 13.3594 23.2496 16.2656 21.8875 20.0625C20.0557 25.125 16.4391 30.0469 11.5074 30.0469C7.04534 30.0469 4.69689 26.3438 4.69689 20.4844C4.69689 12 10.9438 5.10938 15.5467 5.10938C17.7543 5.10938 18.7876 6.51563 18.7876 8.67188C18.7876 11.2969 17.3315 12.4688 17.3315 13.5C17.3315 13.7812 17.5664 14.1094 18.083 14.1094C20.1027 14.1094 22.4512 11.7656 22.4512 8.53125C22.4512 5.29688 19.9148 3 15.3119 3C7.65594 3 0 10.6406 0 20.4844C0 28.3125 3.85145 33 10.521 33C15.077 33 19.0694 29.4844 21.183 25.3594C21.4178 28.7812 22.9678 30.5625 25.3632 30.5625C27.4768 30.5625 29.1677 29.2969 30.4828 27.0938C30.9995 29.3906 32.3146 30.5156 34.0525 30.5156C36.0252 30.5156 37.7161 29.25 39.266 26.9531C39.266 28.7812 39.6418 30.5156 41.2387 30.5156C41.9902 30.5156 42.8826 30.3281 43.0235 29.6719C44.7144 22.7812 48.8477 17.1094 50.1159 17.1094C50.4916 17.1094 50.5855 17.4844 50.5855 17.9062C50.5855 19.7812 49.2704 23.625 49.2704 26.0625C49.2704 28.7344 50.3977 30.4688 52.7461 30.4688C55.3294 30.4688 57.9597 27.3281 59.6975 22.6875C60.2612 27 61.4354 30.4688 63.2672 30.4688C65.5217 30.4688 69.608 25.6875 72.0504 20.625C72.9897 20.7656 74.4458 20.7188 75.8548 19.7344C75.2442 21.2344 74.9155 22.875 74.9155 24.4688C74.9155 29.1562 77.17 30.4688 79.0957 30.4688C81.2093 30.4688 82.9002 29.2031 84.2153 27C84.638 28.9688 85.7653 30.4219 87.7849 30.4219C90.9319 30.4219 93.703 27.1875 93.703 24.5156C93.75 23.9531 93.4212 23.4844 93.0924 23.4844ZM27.3359 27.9375C26.0678 27.9375 25.5511 26.6719 25.5511 24.75C25.5511 21.4219 27.8526 15.8438 30.248 15.8438C31.2813 15.8438 31.704 17.0625 31.704 18.6094C31.704 21.9844 29.5435 27.9375 27.3359 27.9375ZM71.1579 18C70.4064 17.1094 70.1246 15.8438 70.1246 14.7656C70.1246 13.4062 70.6413 12.2812 71.2049 12.2812C71.7685 12.2812 72.0034 12.8438 72.0034 13.6875C71.9564 15 71.4867 17.0156 71.1579 18ZM81.0684 27.9375C79.8002 27.9375 79.2836 26.4375 79.2836 24.75C79.2836 21.5156 81.5851 15.8438 83.9805 15.8438C85.0138 15.8438 85.3895 17.0625 85.3895 18.6094C85.4365 21.9844 83.3229 27.9375 81.0684 27.9375Z" fill="url(#paint2_radial_1649_399)"/>
<path d="M93.0924 23.4844C92.9515 23.4844 92.8106 23.5781 92.7167 23.8125C91.7773 26.5312 90.4622 28.1719 89.3819 28.1719C88.7713 28.1719 88.5365 27.4688 88.5365 26.4375C88.5365 23.7656 90.1334 18.0938 90.9319 15.4688C91.0258 15.1406 91.0728 14.8594 91.0728 14.625C91.0728 13.875 90.6501 13.5 89.6167 13.5C88.5365 13.5 87.3153 13.9219 86.188 15.9375C85.8123 14.1562 84.5911 13.4062 82.9002 13.4062C80.9744 13.4062 79.0957 14.6719 77.5457 16.6875C75.9958 18.7031 74.164 19.3594 72.8019 19.0312C73.7882 16.6406 74.164 14.8125 74.164 13.5C74.164 11.3906 73.1306 10.125 71.4398 10.125C68.9034 10.125 67.4474 12.5625 67.4474 15.0938C67.4474 17.0625 68.3398 19.0781 70.3125 20.0625C68.6686 23.7656 66.2732 27.1406 65.3338 27.1406C64.1596 27.1406 63.7838 21.375 63.8778 17.25C63.9247 14.9062 64.1126 14.7656 64.1126 14.0625C64.1126 13.6406 63.8308 13.3594 62.7505 13.3594C60.2612 13.3594 59.4627 15.4688 59.3687 17.9062C59.3218 18.8438 59.1809 19.7344 58.946 20.625C57.9127 24.3281 55.7521 27.1875 54.3431 27.1875C53.6855 27.1875 53.4976 26.5312 53.4976 25.6875C53.4976 23.0156 55.0006 19.6406 55.0006 16.7812C55.0006 14.6719 54.0612 13.3594 52.3234 13.3594C50.2568 13.3594 47.5795 15.7969 44.9962 20.3438C45.8417 16.875 46.1705 13.5 43.6811 13.5C43.1175 13.5 42.6008 13.6406 42.1311 13.9219C41.8024 14.0625 41.6145 14.3906 41.6145 14.7656C41.8493 18.4688 38.6085 27.9844 35.5555 27.9844C34.9919 27.9844 34.71 27.375 34.71 26.3906C34.71 23.7188 36.307 18.0469 37.1055 15.4219C37.1994 15.0938 37.2464 14.8125 37.2464 14.5312C37.2464 13.8281 36.8236 13.4531 35.7903 13.4531C34.71 13.4531 33.4889 13.875 32.3616 15.8906C31.9389 14.1094 30.7647 13.3594 29.0738 13.3594C26.3026 13.3594 23.2496 16.2656 21.8875 20.0625C20.0557 25.125 16.4391 30.0469 11.5074 30.0469C7.04534 30.0469 4.69689 26.3438 4.69689 20.4844C4.69689 12 10.9438 5.10938 15.5467 5.10938C17.7543 5.10938 18.7876 6.51563 18.7876 8.67188C18.7876 11.2969 17.3315 12.4688 17.3315 13.5C17.3315 13.7812 17.5664 14.1094 18.083 14.1094C20.1027 14.1094 22.4512 11.7656 22.4512 8.53125C22.4512 5.29688 19.9148 3 15.3119 3C7.65594 3 0 10.6406 0 20.4844C0 28.3125 3.85145 33 10.521 33C15.077 33 19.0694 29.4844 21.183 25.3594C21.4178 28.7812 22.9678 30.5625 25.3632 30.5625C27.4768 30.5625 29.1677 29.2969 30.4828 27.0938C30.9995 29.3906 32.3146 30.5156 34.0525 30.5156C36.0252 30.5156 37.7161 29.25 39.266 26.9531C39.266 28.7812 39.6418 30.5156 41.2387 30.5156C41.9902 30.5156 42.8826 30.3281 43.0235 29.6719C44.7144 22.7812 48.8477 17.1094 50.1159 17.1094C50.4916 17.1094 50.5855 17.4844 50.5855 17.9062C50.5855 19.7812 49.2704 23.625 49.2704 26.0625C49.2704 28.7344 50.3977 30.4688 52.7461 30.4688C55.3294 30.4688 57.9597 27.3281 59.6975 22.6875C60.2612 27 61.4354 30.4688 63.2672 30.4688C65.5217 30.4688 69.608 25.6875 72.0504 20.625C72.9897 20.7656 74.4458 20.7188 75.8548 19.7344C75.2442 21.2344 74.9155 22.875 74.9155 24.4688C74.9155 29.1562 77.17 30.4688 79.0957 30.4688C81.2093 30.4688 82.9002 29.2031 84.2153 27C84.638 28.9688 85.7653 30.4219 87.7849 30.4219C90.9319 30.4219 93.703 27.1875 93.703 24.5156C93.75 23.9531 93.4212 23.4844 93.0924 23.4844ZM27.3359 27.9375C26.0678 27.9375 25.5511 26.6719 25.5511 24.75C25.5511 21.4219 27.8526 15.8438 30.248 15.8438C31.2813 15.8438 31.704 17.0625 31.704 18.6094C31.704 21.9844 29.5435 27.9375 27.3359 27.9375ZM71.1579 18C70.4064 17.1094 70.1246 15.8438 70.1246 14.7656C70.1246 13.4062 70.6413 12.2812 71.2049 12.2812C71.7685 12.2812 72.0034 12.8438 72.0034 13.6875C71.9564 15 71.4867 17.0156 71.1579 18ZM81.0684 27.9375C79.8002 27.9375 79.2836 26.4375 79.2836 24.75C79.2836 21.5156 81.5851 15.8438 83.9805 15.8438C85.0138 15.8438 85.3895 17.0625 85.3895 18.6094C85.4365 21.9844 83.3229 27.9375 81.0684 27.9375Z" fill="url(#paint3_radial_1649_399)"/>
<path d="M93.0924 23.4844C92.9515 23.4844 92.8106 23.5781 92.7167 23.8125C91.7773 26.5312 90.4622 28.1719 89.3819 28.1719C88.7713 28.1719 88.5365 27.4688 88.5365 26.4375C88.5365 23.7656 90.1334 18.0938 90.9319 15.4688C91.0258 15.1406 91.0728 14.8594 91.0728 14.625C91.0728 13.875 90.6501 13.5 89.6167 13.5C88.5365 13.5 87.3153 13.9219 86.188 15.9375C85.8123 14.1562 84.5911 13.4062 82.9002 13.4062C80.9744 13.4062 79.0957 14.6719 77.5457 16.6875C75.9958 18.7031 74.164 19.3594 72.8019 19.0312C73.7882 16.6406 74.164 14.8125 74.164 13.5C74.164 11.3906 73.1306 10.125 71.4398 10.125C68.9034 10.125 67.4474 12.5625 67.4474 15.0938C67.4474 17.0625 68.3398 19.0781 70.3125 20.0625C68.6686 23.7656 66.2732 27.1406 65.3338 27.1406C64.1596 27.1406 63.7838 21.375 63.8778 17.25C63.9247 14.9062 64.1126 14.7656 64.1126 14.0625C64.1126 13.6406 63.8308 13.3594 62.7505 13.3594C60.2612 13.3594 59.4627 15.4688 59.3687 17.9062C59.3218 18.8438 59.1809 19.7344 58.946 20.625C57.9127 24.3281 55.7521 27.1875 54.3431 27.1875C53.6855 27.1875 53.4976 26.5312 53.4976 25.6875C53.4976 23.0156 55.0006 19.6406 55.0006 16.7812C55.0006 14.6719 54.0612 13.3594 52.3234 13.3594C50.2568 13.3594 47.5795 15.7969 44.9962 20.3438C45.8417 16.875 46.1705 13.5 43.6811 13.5C43.1175 13.5 42.6008 13.6406 42.1311 13.9219C41.8024 14.0625 41.6145 14.3906 41.6145 14.7656C41.8493 18.4688 38.6085 27.9844 35.5555 27.9844C34.9919 27.9844 34.71 27.375 34.71 26.3906C34.71 23.7188 36.307 18.0469 37.1055 15.4219C37.1994 15.0938 37.2464 14.8125 37.2464 14.5312C37.2464 13.8281 36.8236 13.4531 35.7903 13.4531C34.71 13.4531 33.4889 13.875 32.3616 15.8906C31.9389 14.1094 30.7647 13.3594 29.0738 13.3594C26.3026 13.3594 23.2496 16.2656 21.8875 20.0625C20.0557 25.125 16.4391 30.0469 11.5074 30.0469C7.04534 30.0469 4.69689 26.3438 4.69689 20.4844C4.69689 12 10.9438 5.10938 15.5467 5.10938C17.7543 5.10938 18.7876 6.51563 18.7876 8.67188C18.7876 11.2969 17.3315 12.4688 17.3315 13.5C17.3315 13.7812 17.5664 14.1094 18.083 14.1094C20.1027 14.1094 22.4512 11.7656 22.4512 8.53125C22.4512 5.29688 19.9148 3 15.3119 3C7.65594 3 0 10.6406 0 20.4844C0 28.3125 3.85145 33 10.521 33C15.077 33 19.0694 29.4844 21.183 25.3594C21.4178 28.7812 22.9678 30.5625 25.3632 30.5625C27.4768 30.5625 29.1677 29.2969 30.4828 27.0938C30.9995 29.3906 32.3146 30.5156 34.0525 30.5156C36.0252 30.5156 37.7161 29.25 39.266 26.9531C39.266 28.7812 39.6418 30.5156 41.2387 30.5156C41.9902 30.5156 42.8826 30.3281 43.0235 29.6719C44.7144 22.7812 48.8477 17.1094 50.1159 17.1094C50.4916 17.1094 50.5855 17.4844 50.5855 17.9062C50.5855 19.7812 49.2704 23.625 49.2704 26.0625C49.2704 28.7344 50.3977 30.4688 52.7461 30.4688C55.3294 30.4688 57.9597 27.3281 59.6975 22.6875C60.2612 27 61.4354 30.4688 63.2672 30.4688C65.5217 30.4688 69.608 25.6875 72.0504 20.625C72.9897 20.7656 74.4458 20.7188 75.8548 19.7344C75.2442 21.2344 74.9155 22.875 74.9155 24.4688C74.9155 29.1562 77.17 30.4688 79.0957 30.4688C81.2093 30.4688 82.9002 29.2031 84.2153 27C84.638 28.9688 85.7653 30.4219 87.7849 30.4219C90.9319 30.4219 93.703 27.1875 93.703 24.5156C93.75 23.9531 93.4212 23.4844 93.0924 23.4844ZM27.3359 27.9375C26.0678 27.9375 25.5511 26.6719 25.5511 24.75C25.5511 21.4219 27.8526 15.8438 30.248 15.8438C31.2813 15.8438 31.704 17.0625 31.704 18.6094C31.704 21.9844 29.5435 27.9375 27.3359 27.9375ZM71.1579 18C70.4064 17.1094 70.1246 15.8438 70.1246 14.7656C70.1246 13.4062 70.6413 12.2812 71.2049 12.2812C71.7685 12.2812 72.0034 12.8438 72.0034 13.6875C71.9564 15 71.4867 17.0156 71.1579 18ZM81.0684 27.9375C79.8002 27.9375 79.2836 26.4375 79.2836 24.75C79.2836 21.5156 81.5851 15.8438 83.9805 15.8438C85.0138 15.8438 85.3895 17.0625 85.3895 18.6094C85.4365 21.9844 83.3229 27.9375 81.0684 27.9375Z" fill="url(#paint4_radial_1649_399)"/>
<path d="M93.0924 23.4844C92.9515 23.4844 92.8106 23.5781 92.7167 23.8125C91.7773 26.5312 90.4622 28.1719 89.3819 28.1719C88.7713 28.1719 88.5365 27.4688 88.5365 26.4375C88.5365 23.7656 90.1334 18.0938 90.9319 15.4688C91.0258 15.1406 91.0728 14.8594 91.0728 14.625C91.0728 13.875 90.6501 13.5 89.6167 13.5C88.5365 13.5 87.3153 13.9219 86.188 15.9375C85.8123 14.1562 84.5911 13.4062 82.9002 13.4062C80.9744 13.4062 79.0957 14.6719 77.5457 16.6875C75.9958 18.7031 74.164 19.3594 72.8019 19.0312C73.7882 16.6406 74.164 14.8125 74.164 13.5C74.164 11.3906 73.1306 10.125 71.4398 10.125C68.9034 10.125 67.4474 12.5625 67.4474 15.0938C67.4474 17.0625 68.3398 19.0781 70.3125 20.0625C68.6686 23.7656 66.2732 27.1406 65.3338 27.1406C64.1596 27.1406 63.7838 21.375 63.8778 17.25C63.9247 14.9062 64.1126 14.7656 64.1126 14.0625C64.1126 13.6406 63.8308 13.3594 62.7505 13.3594C60.2612 13.3594 59.4627 15.4688 59.3687 17.9062C59.3218 18.8438 59.1809 19.7344 58.946 20.625C57.9127 24.3281 55.7521 27.1875 54.3431 27.1875C53.6855 27.1875 53.4976 26.5312 53.4976 25.6875C53.4976 23.0156 55.0006 19.6406 55.0006 16.7812C55.0006 14.6719 54.0612 13.3594 52.3234 13.3594C50.2568 13.3594 47.5795 15.7969 44.9962 20.3438C45.8417 16.875 46.1705 13.5 43.6811 13.5C43.1175 13.5 42.6008 13.6406 42.1311 13.9219C41.8024 14.0625 41.6145 14.3906 41.6145 14.7656C41.8493 18.4688 38.6085 27.9844 35.5555 27.9844C34.9919 27.9844 34.71 27.375 34.71 26.3906C34.71 23.7188 36.307 18.0469 37.1055 15.4219C37.1994 15.0938 37.2464 14.8125 37.2464 14.5312C37.2464 13.8281 36.8236 13.4531 35.7903 13.4531C34.71 13.4531 33.4889 13.875 32.3616 15.8906C31.9389 14.1094 30.7647 13.3594 29.0738 13.3594C26.3026 13.3594 23.2496 16.2656 21.8875 20.0625C20.0557 25.125 16.4391 30.0469 11.5074 30.0469C7.04534 30.0469 4.69689 26.3438 4.69689 20.4844C4.69689 12 10.9438 5.10938 15.5467 5.10938C17.7543 5.10938 18.7876 6.51563 18.7876 8.67188C18.7876 11.2969 17.3315 12.4688 17.3315 13.5C17.3315 13.7812 17.5664 14.1094 18.083 14.1094C20.1027 14.1094 22.4512 11.7656 22.4512 8.53125C22.4512 5.29688 19.9148 3 15.3119 3C7.65594 3 0 10.6406 0 20.4844C0 28.3125 3.85145 33 10.521 33C15.077 33 19.0694 29.4844 21.183 25.3594C21.4178 28.7812 22.9678 30.5625 25.3632 30.5625C27.4768 30.5625 29.1677 29.2969 30.4828 27.0938C30.9995 29.3906 32.3146 30.5156 34.0525 30.5156C36.0252 30.5156 37.7161 29.25 39.266 26.9531C39.266 28.7812 39.6418 30.5156 41.2387 30.5156C41.9902 30.5156 42.8826 30.3281 43.0235 29.6719C44.7144 22.7812 48.8477 17.1094 50.1159 17.1094C50.4916 17.1094 50.5855 17.4844 50.5855 17.9062C50.5855 19.7812 49.2704 23.625 49.2704 26.0625C49.2704 28.7344 50.3977 30.4688 52.7461 30.4688C55.3294 30.4688 57.9597 27.3281 59.6975 22.6875C60.2612 27 61.4354 30.4688 63.2672 30.4688C65.5217 30.4688 69.608 25.6875 72.0504 20.625C72.9897 20.7656 74.4458 20.7188 75.8548 19.7344C75.2442 21.2344 74.9155 22.875 74.9155 24.4688C74.9155 29.1562 77.17 30.4688 79.0957 30.4688C81.2093 30.4688 82.9002 29.2031 84.2153 27C84.638 28.9688 85.7653 30.4219 87.7849 30.4219C90.9319 30.4219 93.703 27.1875 93.703 24.5156C93.75 23.9531 93.4212 23.4844 93.0924 23.4844ZM27.3359 27.9375C26.0678 27.9375 25.5511 26.6719 25.5511 24.75C25.5511 21.4219 27.8526 15.8438 30.248 15.8438C31.2813 15.8438 31.704 17.0625 31.704 18.6094C31.704 21.9844 29.5435 27.9375 27.3359 27.9375ZM71.1579 18C70.4064 17.1094 70.1246 15.8438 70.1246 14.7656C70.1246 13.4062 70.6413 12.2812 71.2049 12.2812C71.7685 12.2812 72.0034 12.8438 72.0034 13.6875C71.9564 15 71.4867 17.0156 71.1579 18ZM81.0684 27.9375C79.8002 27.9375 79.2836 26.4375 79.2836 24.75C79.2836 21.5156 81.5851 15.8438 83.9805 15.8438C85.0138 15.8438 85.3895 17.0625 85.3895 18.6094C85.4365 21.9844 83.3229 27.9375 81.0684 27.9375Z" fill="url(#paint5_radial_1649_399)"/>
</g>
<defs>
<linearGradient id="paint0_linear_1649_399" x1="92.7125" y1="33.5182" x2="14.7436" y2="14.9258" gradientUnits="userSpaceOnUse">
<stop stop-color="#7D2AE7"/>
<stop offset="0.7708" stop-color="#7D2AE7"/>
<stop offset="1" stop-color="#7D2AE7" stop-opacity="0"/>
</linearGradient>
<radialGradient id="paint1_radial_1649_399" cx="0" cy="0" r="1" gradientTransform="matrix(19.6839 -20.2058 -13.4554 -13.0555 47.994 36.2536)" gradientUnits="userSpaceOnUse">
<stop stop-color="#6420FF"/>
<stop offset="1" stop-color="#6420FF" stop-opacity="0"/>
</radialGradient>
<radialGradient id="paint2_radial_1649_399" cx="0" cy="0" r="1" gradientTransform="matrix(54.7399 4.86435 3.88477 -43.5417 2.24353 22.9802)" gradientUnits="userSpaceOnUse">
<stop offset="0.25" stop-color="#00C4CC"/>
<stop offset="1" stop-color="#00C4CC" stop-opacity="0"/>
</radialGradient>
<radialGradient id="paint3_radial_1649_399" cx="0" cy="0" r="1" gradientTransform="matrix(27.5809 -22.1703 -15.1897 -18.8212 40.0075 32.9776)" gradientUnits="userSpaceOnUse">
<stop stop-color="#6420FF"/>
<stop offset="1" stop-color="#6420FF" stop-opacity="0"/>
</radialGradient>
<radialGradient id="paint4_radial_1649_399" cx="0" cy="0" r="1" gradientTransform="matrix(34.1188 -23.1992 -15.8947 -23.2827 5.25165 38.2132)" gradientUnits="userSpaceOnUse">
<stop stop-color="#6420FF"/>
<stop offset="1" stop-color="#6420FF" stop-opacity="0"/>
</radialGradient>
<radialGradient id="paint5_radial_1649_399" cx="0" cy="0" r="1" gradientTransform="matrix(79.6727 17.5865 21.6124 -97.5202 9.02017 5.74892)" gradientUnits="userSpaceOnUse">
<stop stop-color="#00C4CC"/>
<stop offset="1" stop-color="#00C4CC" stop-opacity="0"/>
</radialGradient>
<clipPath id="clip0_1649_399">
<rect width="93.75" height="30" fill="white" transform="translate(0 3)"/>
</clipPath>
</defs>
</svg>
